<?xml version="1.0" encoding="utf-8"?>
<!-- Generator: Adobe Illustrator 19.1.0, SVG Export Plug-In . SVG Version: 6.00 Build 0)  -->
<!DOCTYPE svg PUBLIC "-//W3C//DTD SVG 1.1//EN" "http://www.w3.org/Graphics/SVG/1.1/DTD/svg11.dtd">
<svg version="1.1" id="Layer_1" xmlns="http://www.w3.org/2000/svg" xmlns:xlink="http://www.w3.org/1999/xlink" x="0px" y="0px"
	 viewBox="0 0 135 65" style="enable-background:new 0 0 135 65;" xml:space="preserve">
<style type="text/css">
	.st0{fill:#9392cd;}
</style>
<g>
	<g>
		<path class="st0" d="M47.8,26.3c-1.1,3.1-2.1,6.2-3.2,9.2c-0.9,2.6-2.7,5.8-3,8.5c0,0.4-0.4,1.7,0.3,0.7c0.8-1.1,0.9-3.4,1.3-4.7
			c0.8-2.5,1.5-5,2.4-7.5c0.4-1.2,3.2-11.8,4.7-11.8c0.7,0-1.7,10.2-1.1,11.4c0.6,1.1,0.7,0.5,1.3-0.4c2-2.6,2.5-8,3.4-11.1
			c1.3-4.6,2.5-9.2,3.8-13.7c0.4-1.5,1.1-3,1.3-4.5c0.3-1.5,0.1-1.1-0.3,0.2c-1,3.4-1.3,7.3-1.9,10.7C55.5,21.5,54.6,29.7,54,38
			c-0.6,8.7-1.1,17.4-0.9,26.1c0,0.4,0.7,0.3,0.7,0c-0.2-11.8,0.5-23.7,1.7-35.4c0.8-8.1,2.2-16.1,3.6-24.1C59.2,4.1,60,1.3,59.4,1
			c-0.1-0.1-0.3-0.1-0.4,0c-0.8,0.4-1,2.3-1.2,3.1c-0.9,2.9-1.6,5.8-2.4,8.7c-1.7,6-3.8,12.1-5.2,18.1c-0.7,2.8-0.2,0.2,0-1.4
			c0.2-1.4,2-7.8,0.8-8.9c-1.9-1.7-3.9,5.9-4.3,7c-1.4,3.9-2.7,7.9-3.9,11.8c-0.5,1.6-1.8,4.1-1.6,5.9c0,0.2,0.3,0.2,0.4,0.2
			c1.4-0.5,2-4.9,2.3-5.9c1.5-4.4,3.1-8.7,4.5-13.1C48.6,26,47.9,26,47.8,26.3L47.8,26.3z"/>
	</g>
	<g>
		<path class="st0" d="M63.2,23.7c-1.4-0.6-2.9-0.3-4,0.7c-1.5,1.4-1.7,4.1-1.7,6c0,2.6,0.1-0.2,0.4-1.2c1-4.2,6.5-7.4,10.2-4.2
			c1.5,1.3,1.5,3,1.8,4.7c0.2,1.3-0.1,2.1,1.3,1.9c1-0.2,2.3-2.8,2.7-3.5c2.8-4.2,5.7-8.9,11-10.4c3.4-1,7.4-0.3,9.7,2.6
			c1.4,1.7,2.4,5,1,7c-2.8,3.9-9.4-0.3-10.4-3.7C83.2,16.5,93.2,11.1,98,8.5c0.4-0.2-0.2-0.4-0.4-0.2C92.4,11.1,78.3,20,86.6,27.1
			c2.9,2.5,9.3,3.3,10.1-1.6c1.4-8.3-9.1-10.1-14.6-7.1c-2.1,1.1-3.9,2.8-5.5,4.6c-0.4,0.5-5.4,8.3-5.9,8.1
			c-0.4-0.2-0.3-2.8-0.4-3.3c-0.3-1.4-0.9-2.8-2.2-3.6c-2.6-1.7-6.8-0.9-8.9,1.1c-1,1-3.6,5.3-2.1,6.7c0.1,0.1,0.4,0.1,0.6,0
			c2.1-1.4-1.1-10.5,4.9-8C62.9,24.1,63.5,23.8,63.2,23.7L63.2,23.7z"/>
	</g>
</g>
</svg>
