<?xml version="1.0" encoding="utf-8"?>
<!-- Generator: Adobe Illustrator 19.1.0, SVG Export Plug-In . SVG Version: 6.00 Build 0)  -->
<!DOCTYPE svg PUBLIC "-//W3C//DTD SVG 1.1//EN" "http://www.w3.org/Graphics/SVG/1.1/DTD/svg11.dtd">
<svg version="1.1" id="Layer_1" xmlns="http://www.w3.org/2000/svg" xmlns:xlink="http://www.w3.org/1999/xlink" x="0px" y="0px"
	 viewBox="0 0 135 65" style="enable-background:new 0 0 135 65;" xml:space="preserve">
<style type="text/css">
	.st0{fill:#9392cd;}
</style>
<g>
	<path class="st0" d="M21.2,32.5c1.3-2.4,5.4-8.7,4.3-11.5c-1.5-3.6-7.7,3.2-9,4.5C11.5,30.4-6.1,50.4,5,56.7
		c5.4,3.1,36.7-1.8,32.8-9.6c-1.3-2.7-6.3-3.3-8.9-2.8c-1.8,0.4-10.6,4.9-6.7,7c2.2,1.1,7.1-1.4,9.2-2.2c4.6-1.8,9.1-3.8,13.7-5.7
		c3.8-1.6,8.2-3.9,12.4-4.4c5.5-0.6,0.3,2.7,0.2,4.9c0,0.1,0.1,0.1,0.1,0.2c1.2,0.4,3.5-2.9,4.2-3.5c1.3-1.4,2.7-2.7,4-4.1
		c2.2-2.5,0.3-0.4-0.7,1.3c-0.8,1.5-2.9,5.3-0.1,5.4c2.6,0,5.1-6.3,6.8-7.1c2.3-1.1,1.2,0.3,0.3,2.2c-0.6,1.3-1.4,2.5-2.1,3.7
		c-0.2,0.3,0.5,0.2,0.6,0.1c1.8-1.7,2.9-3.8,4.9-5.3c3.3-2.6,7.6-3.6,11.2-5.8c0.3-0.2,4.9-2.9,3.5-3.9c-1.1-0.8-3.2,2.2-3.6,2.8
		c-1,1.5-1.6,3.1-2.6,4.5c-0.6,0.9-3.8,5.5-5.6,5.3c-4.5-0.3,3.6-4.1,4.5-4.3c1.7-0.5,3.4-0.8,5.1-0.9c-0.2,0,4.2-0.2,3.2,0.9
		c-0.1,0.1-0.1,0.2,0,0.3c0,0,0,0,0,0c0.1,0.1,0.3,0,0.4,0c1.7-0.9,0.1-0.4-1,0.3c-0.8,0.5-1.5,1.2-2.2,1.9
		c-0.8,0.9-1.8,2.3-2.1,3.5c-0.4,2.1,0.3,1.9,1.7,0.6c2.2-2.1,3.7-5.4,5.1-8c3.6-6.3,6.8-12.9,10.2-19.4c0.9-1.7,2.1-3.5,2.8-5.3
		c0.4-0.9,0.9-2.1,0.2-0.7c-1.3,3-2.4,6.1-3.7,9.1c-1.9,4.3-3.8,8.7-5.8,13c-0.4,1-3.4,5.6-2.8,6.6c0.1,0.2,0.4,0.2,0.5,0.1
		c1-0.5,1.7-2.3,2.3-3.3c1.3-2.1,2.6-5.1,4.5-6.8c1.2-1.1,0.7-0.7,0.5,0.8c-0.3,2.3-1.9,5.2-1.3,7.6c0.3,1.2,0.3,1.9,1.6,1.6
		c1.3-0.3,2.1-3,2.6-3.9c1-1.8,2.6-5.1,4.6-5.9c6.6-2.8,5.6,4.3,2.6,6.4c-1,0.7-4.3,2.9-5,0.3c-0.1-0.3,0.9-1.3,1-1.5
		c0.9-2,3.1-4.1,4.7-5.6c5.8-5.8,13.5-9,19.7-1.7c0.2,0.2,0.9-0.1,0.7-0.3c-4.1-4.8-9.4-5.9-14.9-2.8c-2.8,1.6-5.3,3.8-7.5,6.2
		c-1.3,1.4-4.2,4.1-4.4,6c-0.4,2.9,3.3,1.4,4.9,0.6c2.9-1.5,6.9-6.4,1.7-8.4c-3.9-1.5-7,3.7-8.5,6.4c-0.9,1.5-2.6,6-3,1.9
		c-0.2-2,2.7-7.2,1.6-8.6c-0.9-1.1-2.3,1.2-2.8,1.8c-1.2,1.6-2.3,3.3-3.3,5c-0.5,0.8-1.1,1.5-1.5,2.3c-0.2,0.3-0.9,2.1-0.6,1.6
		c3.1-5.2,5.2-11.6,7.6-17.1c1.3-3,2.6-5.9,3.8-8.9c0.4-0.9,1.3-2.4,1.1-3.4c0-0.1-0.1-0.1-0.1-0.1c-1.4-0.4-3.7,5.4-4,6.1
		c-4.3,8.1-8.2,16.5-13.1,24.4c-0.8,1.3-4.7,7.2-2.7,2.7c0.5-1.1,1.3-2.3,2.1-3.1c0.8-0.9,3-1.6,3.4-2.7c0.1-0.3-0.5-0.1-0.6-0.1
		c-1,0.6,0,0.2-0.1,0.1c-0.1,0-1.1-0.7-1.2-0.8c-3.4-1.5-10.1,1.2-12.8,2.8c-3.8,2.3-2.6,4.9,1.3,2.7c4.3-2.4,5.4-7.1,8.4-10.6
		c1.9-2.2,1.8-0.9-0.1,0.6C85,32,81.2,33,77.9,34.7c-1.7,0.9-3.1,2-4.4,3.4c-0.4,0.4-3.5,4-2.3,3.6c0.6-0.2,4-6.3,3-7.3
		c-1.3-1.2-4.6,3.8-5.1,4.5c-1.2,1.5-4.7,5.7-4,1.7c0.3-1.8,2-3.1,2.5-4.8c0.1-0.3,0.8-0.8,0.5-1.1c-0.1-0.1-0.4-0.1-0.5,0
		c-2.7,1.1-5.2,5.1-7.2,7.1c-4.3,4.3,1.8-1,0.6-2.9c-1.2-1.9-7.2,0.8-8.6,1.3c-6.7,2.4-13.2,5.4-19.9,8.1c-2,0.8-12,4.7-9.4,0
		c1.6-2.9,6.5-4,9.5-3.3c1.4,0.3,3.6,0.9,4.3,2.3c1.6,2.8-2.2,4.6-4.2,5.6c-5,2.3-10.8,3.6-16.3,4.4c-3.8,0.6-9.3,1.2-12.3-1.8
		C0.1,51.2,4,43.6,6.3,39.6c2-3.5,4.5-6.9,7.1-10c2.2-2.6,5.5-6.9,8.6-8.2c4.8-2,1.8,4.1,0.8,6.3c-0.7,1.6-1.5,3.2-2.3,4.8
		C20.3,32.8,21,32.8,21.2,32.5L21.2,32.5z"/>
</g>
</svg>
